<svg xmlns="http://www.w3.org/2000/svg" width="64" height="64" viewBox="0 0 64 64">
  <defs>
    <linearGradient id="g" x1="0" y1="0" x2="1" y2="1">
      <stop offset="0" stop-color="#1b4dff" />
      <stop offset="1" stop-color="#0f172a" />
    </linearGradient>
  </defs>
  <rect x="6" y="6" width="52" height="52" rx="14" fill="url(#g)" />
  <path
    d="M22 36c0-7 5-12 12-12 3 0 6 1 8 3l-3 3c-1-1-3-2-5-2-4 0-7 3-7 8 0 4 3 7 7 7 2 0 4-1 6-2l3 3c-2 2-5 3-9 3-7 0-12-5-12-12z"
    fill="#fff"
    opacity="0.95"
  />
</svg>

