<svg xmlns="http://www.w3.org/2000/svg" width="1600" height="900" viewBox="0 0 1600 900">
  <defs>
    <linearGradient id="bg" x1="0" y1="0" x2="1" y2="1">
      <stop offset="0" stop-color="#f8fafc" />
      <stop offset="1" stop-color="#e6f7ff" />
    </linearGradient>
    <linearGradient id="accent" x1="0" y1="0" x2="1" y2="1">
      <stop offset="0" stop-color="#22d3ee" stop-opacity="0.26" />
      <stop offset="1" stop-color="#1b4dff" stop-opacity="0.16" />
    </linearGradient>
    <filter id="soft" x="-20%" y="-20%" width="140%" height="140%">
      <feGaussianBlur stdDeviation="18" />
    </filter>
  </defs>

  <rect width="1600" height="900" fill="url(#bg)" />

  <g filter="url(#soft)" opacity="0.95">
    <circle cx="1250" cy="260" r="240" fill="url(#accent)" />
    <circle cx="920" cy="560" r="320" fill="url(#accent)" />
    <circle cx="520" cy="440" r="280" fill="url(#accent)" />
  </g>

  <g opacity="0.22">
    <rect x="220" y="190" width="540" height="380" rx="26" fill="#ffffff" />
    <rect x="260" y="240" width="360" height="26" rx="13" fill="#0f172a" opacity="0.10" />
    <rect x="260" y="280" width="420" height="18" rx="9" fill="#0f172a" opacity="0.08" />
    <rect x="260" y="310" width="300" height="18" rx="9" fill="#0f172a" opacity="0.08" />
  </g>

  <g opacity="0.18">
    <rect x="880" y="260" width="520" height="420" rx="34" fill="#ffffff" />
    <circle cx="1160" cy="420" r="120" fill="#0f172a" opacity="0.06" />
    <rect x="940" y="560" width="360" height="18" rx="9" fill="#0f172a" opacity="0.08" />
    <rect x="940" y="592" width="280" height="18" rx="9" fill="#0f172a" opacity="0.08" />
  </g>

  <g opacity="0.22">
    <path d="M300 720 C 520 650, 650 820, 860 740 S 1290 730, 1500 800" fill="none" stroke="#1b4dff" stroke-width="2"/>
  </g>
</svg>

