<svg xmlns="http://www.w3.org/2000/svg" width="1600" height="900" viewBox="0 0 1600 900">
  <defs>
    <linearGradient id="bg" x1="0" y1="0" x2="1" y2="1">
      <stop offset="0" stop-color="#f8fafc" />
      <stop offset="1" stop-color="#eef2ff" />
    </linearGradient>
    <linearGradient id="shape" x1="0" y1="0" x2="1" y2="1">
      <stop offset="0" stop-color="#1b4dff" stop-opacity="0.16" />
      <stop offset="1" stop-color="#0f172a" stop-opacity="0.10" />
    </linearGradient>
    <filter id="blur" x="-20%" y="-20%" width="140%" height="140%">
      <feGaussianBlur stdDeviation="14" />
    </filter>
  </defs>

  <rect width="1600" height="900" fill="url(#bg)" />

  <g opacity="0.95" filter="url(#blur)">
    <circle cx="1220" cy="260" r="220" fill="url(#shape)" />
    <circle cx="980" cy="520" r="260" fill="url(#shape)" />
    <circle cx="420" cy="420" r="240" fill="url(#shape)" />
  </g>

  <g opacity="0.35">
    <path d="M120 720 C 360 640, 520 820, 820 720 S 1320 720, 1520 780" fill="none" stroke="#0f172a" stroke-width="2"/>
    <path d="M160 760 C 420 680, 560 840, 860 740 S 1340 740, 1500 820" fill="none" stroke="#1b4dff" stroke-width="2"/>
  </g>

  <g opacity="0.22">
    <rect x="1120" y="610" width="340" height="170" rx="28" fill="#0f172a" />
    <rect x="1160" y="650" width="120" height="16" rx="8" fill="#ffffff" />
    <rect x="1160" y="680" width="220" height="12" rx="6" fill="#ffffff" />
    <rect x="1160" y="706" width="180" height="12" rx="6" fill="#ffffff" />
  </g>
</svg>

